<svg width="91" height="32" viewBox="0 0 91 32" fill="none" xmlns="http://www.w3.org/2000/svg">
<path d="M48.725 25H41.25V24.05C41.5833 23.8833 41.9083 23.7417 42.225 23.625C42.5417 23.5083 42.8833 23.4083 43.25 23.325V12.875L43.375 9.95H43.175L42.35 12.625L37.525 25H36.375L31.575 12.725L30.675 9.8H30.45L30.475 12.975V23.225C30.7917 23.2917 31.1417 23.4 31.525 23.55C31.9083 23.7 32.2667 23.8667 32.6 24.05V25H26.5V24.05C26.7667 23.9167 27.0917 23.7583 27.475 23.575C27.875 23.3917 28.25 23.2667 28.6 23.2V9.175C28.2667 9.10833 27.9083 9.01667 27.525 8.9C27.1583 8.78333 26.8333 8.63333 26.55 8.45V7.5H33.325L37.15 17.675L37.875 20.075H37.9L38.65 17.625L42.55 7.5H48.75V8.45C48.4667 8.61667 48.1583 8.76667 47.825 8.9C47.5083 9.01667 47.1833 9.10833 46.85 9.175V23.35C47.2 23.4167 47.5333 23.5167 47.85 23.65C48.1833 23.7833 48.475 23.9167 48.725 24.05V25ZM60.9922 21.375C60.9922 21.7417 60.9922 22.0583 60.9922 22.325C61.0089 22.5917 61.0339 22.875 61.0672 23.175L62.7922 23.425V24.3C62.5922 24.4 62.3172 24.5 61.9672 24.6C61.6339 24.7 61.2755 24.8 60.8922 24.9C60.5255 24.9833 60.1589 25.05 59.7922 25.1C59.4255 25.1667 59.1005 25.2167 58.8172 25.25H57.9672C57.8005 24.8667 57.7005 24.4833 57.6672 24.1C57.6339 23.7167 57.6089 23.25 57.5922 22.7H57.4672C57.3839 23.0333 57.2422 23.3583 57.0422 23.675C56.8422 23.975 56.5839 24.25 56.2672 24.5C55.9672 24.7333 55.6089 24.925 55.1922 25.075C54.7755 25.225 54.3089 25.3 53.7922 25.3C53.2422 25.3 52.7339 25.2167 52.2672 25.05C51.8005 24.8833 51.3922 24.65 51.0422 24.35C50.6922 24.05 50.4172 23.6917 50.2172 23.275C50.0172 22.8417 49.9172 22.3583 49.9172 21.825C49.9172 21.075 50.0589 20.4583 50.3422 19.975C50.6255 19.4917 51.0672 19.1 51.6672 18.8C52.2839 18.4833 53.0672 18.25 54.0172 18.1C54.9839 17.95 56.1505 17.8417 57.5172 17.775C57.6505 16.3417 57.5922 15.2917 57.3422 14.625C57.0922 13.9583 56.5505 13.625 55.7172 13.625C55.2005 13.625 54.7255 13.7083 54.2922 13.875L53.1172 16.875H52.0172C51.8839 16.675 51.7505 16.45 51.6172 16.2C51.5005 15.9333 51.3839 15.6583 51.2672 15.375C51.1672 15.075 51.0755 14.775 50.9922 14.475C50.9255 14.175 50.8755 13.8833 50.8422 13.6C51.4755 13.1667 52.2922 12.825 53.2922 12.575C54.2922 12.325 55.3505 12.2 56.4672 12.2C57.4172 12.2 58.1922 12.3083 58.7922 12.525C59.3922 12.725 59.8589 13.0083 60.1922 13.375C60.5422 13.725 60.7839 14.1417 60.9172 14.625C61.0505 15.1083 61.1172 15.625 61.1172 16.175C61.1172 17.175 61.0922 18.0833 61.0422 18.9C61.0089 19.7 60.9922 20.525 60.9922 21.375ZM55.3672 23.3C55.7172 23.3 56.0172 23.2333 56.2672 23.1C56.5172 22.9667 56.7255 22.8083 56.8922 22.625C57.0755 22.4417 57.2089 22.2417 57.2922 22.025C57.3922 21.8083 57.4672 21.6167 57.5172 21.45V18.95C56.7339 18.9667 56.0922 19.0167 55.5922 19.1C55.0922 19.1833 54.7005 19.325 54.4172 19.525C54.1339 19.7083 53.9339 19.95 53.8172 20.25C53.7172 20.5333 53.6672 20.8833 53.6672 21.3C53.6672 21.9333 53.8172 22.425 54.1172 22.775C54.4172 23.125 54.8339 23.3 55.3672 23.3ZM71.7332 18.3L75.6832 23.425C76.1165 23.5583 76.5249 23.7583 76.9082 24.025V25H70.5332V24.05C70.7165 23.9167 70.8999 23.8 71.0832 23.7C71.2832 23.5833 71.4832 23.4917 71.6832 23.425L69.3082 20.025L67.0082 23.425C67.2415 23.5083 67.4415 23.6 67.6082 23.7C67.7915 23.8 67.9665 23.9083 68.1332 24.025V25H63.4082V24.025C63.6415 23.8917 63.8499 23.775 64.0332 23.675C64.2332 23.575 64.4582 23.4917 64.7082 23.425L68.4082 18.825L64.6832 14.075C64.4499 13.9917 64.2415 13.9083 64.0582 13.825C63.8749 13.725 63.7082 13.6083 63.5582 13.475V12.5H69.8332V13.45C69.6332 13.5833 69.4499 13.7083 69.2832 13.825C69.1332 13.925 68.9415 14.0083 68.7082 14.075L70.8832 17.175L72.9582 14.075C72.6749 13.9917 72.4499 13.9 72.2832 13.8C72.1165 13.7 71.9665 13.5917 71.8332 13.475V12.5H76.4582V13.475C76.2915 13.5917 76.1082 13.7 75.9082 13.8C75.7082 13.9 75.4582 13.9917 75.1582 14.075L71.7332 18.3ZM85.5516 18.3L89.5016 23.425C89.9349 23.5583 90.3432 23.7583 90.7266 24.025V25H84.3516V24.05C84.5349 23.9167 84.7182 23.8 84.9016 23.7C85.1016 23.5833 85.3016 23.4917 85.5016 23.425L83.1266 20.025L80.8266 23.425C81.0599 23.5083 81.2599 23.6 81.4266 23.7C81.6099 23.8 81.7849 23.9083 81.9516 24.025V25H77.2266V24.025C77.4599 23.8917 77.6682 23.775 77.8516 23.675C78.0516 23.575 78.2766 23.4917 78.5266 23.425L82.2266 18.825L78.5016 14.075C78.2682 13.9917 78.0599 13.9083 77.8766 13.825C77.6932 13.725 77.5266 13.6083 77.3766 13.475V12.5H83.6516V13.45C83.4516 13.5833 83.2682 13.7083 83.1016 13.825C82.9516 13.925 82.7599 14.0083 82.5266 14.075L84.7016 17.175L86.7766 14.075C86.4932 13.9917 86.2682 13.9 86.1016 13.8C85.9349 13.7 85.7849 13.5917 85.6516 13.475V12.5H90.2766V13.475C90.1099 13.5917 89.9266 13.7 89.7266 13.8C89.5266 13.9 89.2766 13.9917 88.9766 14.075L85.5516 18.3Z" fill="url(#paint0_linear_1_1573)"/>
<path fill-rule="evenodd" clip-rule="evenodd" d="M14.4111 3C14.4111 3 12.7584 5.86422 14.1905 8.79492C15.6233 11.7256 16.8797 14.0351 16.5921 16.4994C16.5921 16.4994 17.3194 12.503 21 11.4589C21 11.4589 19.6339 14.0563 20.3827 17.7207C21.1316 21.384 19.4346 28.2228 12.4703 30C12.4703 30 18.6417 26.6916 14.2114 21.3182C14.2114 21.3182 14.1014 23.9611 11.82 24.7486C11.82 24.7486 15.4121 18.5875 10.1229 12.8586C10.1229 12.8586 11.3351 16.8331 7.27971 20.2303C3.22435 23.6275 5.23037 29.0889 7.56632 29.844C7.56632 29.844 -5.17314 24.1153 2.4088 12.3042C2.4088 12.3042 2.67375 14.9905 4.61312 16.0347C4.61312 16.0347 4.32651 4.51112 14.4104 3.00153L14.4111 3Z" fill="url(#paint1_linear_1_1573)"/>
<defs>
<linearGradient id="paint0_linear_1_1573" x1="91" y1="12.8627" x2="26" y2="12.8627" gradientUnits="userSpaceOnUse">
<stop stop-color="#BF34FB"/>
<stop offset="1" stop-color="white"/>
</linearGradient>
<linearGradient id="paint1_linear_1_1573" x1="21" y1="13.8529" x2="1.95617e-07" y2="13.8529" gradientUnits="userSpaceOnUse">
<stop stop-color="#BF34FB"/>
<stop offset="1" stop-color="white"/>
</linearGradient>
</defs>
</svg>
