<svg width="61" height="61" viewBox="0 0 61 61" fill="blue" xmlns="http://www.w3.org/2000/svg">
<g clip-path="url(#clip0_150460_251)">
<path d="M40.4837 31.0689C46.2032 25.3494 46.2032 16.0758 40.4837 10.3563C34.7642 4.63681 25.4906 4.63681 19.7711 10.3563C14.0516 16.0758 14.0516 25.3494 19.7711 31.0689C20.8715 32.1693 22.1072 33.0637 23.4194 33.7404V52.723C23.4194 53.2526 23.6312 53.7586 24.0078 54.1352L28.7152 58.8426C29.4978 59.6252 30.757 59.6252 31.5396 58.8426L36.2471 54.1352C37.0297 53.3526 37.0297 52.0934 36.2471 51.3108L33.8933 48.9571L36.2471 46.6034C37.0297 45.8208 37.0297 44.5615 36.2471 43.7789L33.8933 41.4252L36.2471 39.0715C36.6236 38.6949 36.8355 38.1889 36.8355 37.6593V33.7404C38.1477 33.0637 39.3834 32.1693 40.4837 31.0689ZM27.7737 13.6515C28.398 13.0273 29.2446 12.6766 30.1274 12.6766C31.0102 12.6766 31.8569 13.0273 32.4811 13.6515C33.1054 14.2757 33.4561 15.1224 33.4561 16.0052C33.4561 16.888 33.1054 17.7347 32.4811 18.3589C31.8569 18.9831 31.0102 19.3338 30.1274 19.3338C29.2446 19.3338 28.398 18.9831 27.7737 18.3589C27.1495 17.7347 26.7988 16.888 26.7988 16.0052C26.7988 15.1224 27.1495 14.2757 27.7737 13.6515Z" fill="#DB2777"/>
</g>
<defs>
<clipPath id="clip0_150460_251">
<rect width="42.6066" height="42.6066" fill="white" transform="translate(0 30.1274) rotate(-45)"/>
</clipPath>
</defs>
</svg>
