<svg width="41" height="45" viewBox="0 0 41 45" fill="none" xmlns="http://www.w3.org/2000/svg">
<g clip-path="url(#clip0_150472_253)">
<path d="M26.919 22.753C30.7221 18.5643 30.7221 11.7728 26.919 7.58416C23.1159 3.3955 16.9496 3.3955 13.1465 7.58416C9.3434 11.7728 9.3434 18.5643 13.1465 22.753C13.8782 23.5588 14.6998 24.2138 15.5723 24.7094V38.6113C15.5723 38.9991 15.7132 39.3697 15.9636 39.6455L19.0937 43.093C19.6141 43.6661 20.4514 43.6661 20.9718 43.093L24.1019 39.6455C24.6223 39.0724 24.6223 38.1502 24.1019 37.577L22.5368 35.8533L24.1019 34.1296C24.6223 33.5564 24.6223 32.6342 24.1019 32.0611L22.5368 30.3374L24.1019 28.6136C24.3523 28.3378 24.4932 27.9672 24.4932 27.5794V24.7094C25.3657 24.2138 26.1873 23.5588 26.919 22.753ZM18.4677 9.99738C18.8828 9.54022 19.4457 9.28339 20.0328 9.28339C20.6198 9.28339 21.1827 9.54022 21.5978 9.99738C22.0129 10.4545 22.2461 11.0746 22.2461 11.7211C22.2461 12.3676 22.0129 12.9877 21.5978 13.4448C21.1827 13.902 20.6198 14.1588 20.0328 14.1588C19.4457 14.1588 18.8828 13.902 18.4677 13.4448C18.0526 12.9877 17.8194 12.3676 17.8194 11.7211C17.8194 11.0746 18.0526 10.4545 18.4677 9.99738Z" fill="white"/>
</g>
<defs>
<clipPath id="clip0_150472_253">
<rect width="29.8013" height="29.8013" fill="white" transform="matrix(0.67221 -0.74036 0.67221 0.74036 0 22.0635)"/>
</clipPath>
</defs>
</svg>
