<svg width="18" height="18" viewBox="0 0 18 18" fill="none" xmlns="http://www.w3.org/2000/svg">
<path d="M9.43233 3.45698C9.29777 3.17771 9.01344 3 8.70117 3C8.38891 3 8.10711 3.17771 7.97001 3.45698L6.3376 6.81578L2.69197 7.354C2.38732 7.3997 2.13345 7.61296 2.03951 7.90492C1.94558 8.19688 2.02174 8.5193 2.24007 8.7351L4.88544 11.3526L4.26091 15.0516C4.21014 15.3562 4.33707 15.666 4.58841 15.8462C4.83975 16.0265 5.17232 16.0493 5.4465 15.9046L8.70371 14.1655L11.9609 15.9046C12.2351 16.0493 12.5677 16.029 12.819 15.8462C13.0703 15.6634 13.1973 15.3562 13.1465 15.0516L12.5194 11.3526L15.1648 8.7351C15.3831 8.5193 15.4618 8.19688 15.3654 7.90492C15.2689 7.61296 15.0176 7.3997 14.7129 7.354L11.0647 6.81578L9.43233 3.45698Z" fill="#E3E3E3"/>
</svg>
